<svg height='100px' width='100px'  fill="#000000" xmlns="http://www.w3.org/2000/svg" xmlns:xlink="http://www.w3.org/1999/xlink" xml:space="preserve" style="shape-rendering:geometricPrecision;text-rendering:geometricPrecision;image-rendering:optimizeQuality;" viewBox="0 0 6.82666 6.82666" x="0px" y="0px" fill-rule="evenodd" clip-rule="evenodd"><defs><style type="text/css">
   
    .fil1 {fill:none}
    .fil0 {fill:#555555;fill-rule:nonzero}
   
  </style></defs><g><g><path class="fil0" d="M2.30095 5.42268l2.22475 0c0.0385669,0 0.0735984,0.0157441 0.0989528,0.0410984 0.0253543,0.0253543 0.0410984,0.0603819 0.0410984,0.0989488l0 0.357276 0 0.0533346 -0.0533346 0 -2.39818 0 -0.0533346 0 0 -0.0533346 0 -0.357276c0,-0.0385669 0.0157441,-0.0735945 0.0410984,-0.0989488l0.000106299 0.000106299c0.0254685,-0.0254213 0.0604606,-0.0412047 0.0988386,-0.0412047zm2.22475 0.106669l-2.22475 0c-0.00925984,0 -0.0175866,0.00369685 -0.0235276,0.0096378l0 0.000208661c-0.00607087,0.00607087 -0.00984646,0.0144094 -0.00984646,0.0235315l0 0.303941 2.29151 0 0 -0.303941c0,-0.00912205 -0.00377559,-0.0174606 -0.00984646,-0.0235315 -0.00607087,-0.00607087 -0.0144134,-0.00984646 -0.0235354,-0.00984646z"></path><path class="fil0" d="M2.50283 4.97869l1.82101 0c0.0385669,0 0.0735945,0.0157441 0.0989488,0.0410984l0 0.000208661c0.0253504,0.0253583 0.0410945,0.0603189 0.0410945,0.0987441l0 0.357272 0 0.0533346 -0.0533346 0 -1.99443 0 -0.0533346 0 0 -0.0533346 0 -0.357272c0,-0.0384252 0.0157441,-0.0733858 0.0410945,-0.0987441l0 -0.000208661c0.0253543,-0.0253543 0.0603819,-0.0410984 0.0989488,-0.0410984zm1.82101 0.106669l-1.82101 0c-0.00912205,0 -0.0174606,0.00377559 -0.0235315,0.00984646l-0.000102362 -0.000102362c-0.00601181,0.00606299 -0.00974016,0.0144252 -0.00974016,0.0236378l0 0.303937 1.88776 0 0 -0.303937c0,-0.0092126 -0.00372835,-0.0175748 -0.00974016,-0.0236378l-0.000102362 0.000102362c-0.00607087,-0.00607087 -0.0144094,-0.00984646 -0.0235315,-0.00984646z"></path><path class="fil0" d="M2.63312 1.74131l1.56042 0 0.0533346 0 0 0.0533346 0 3.23738 0 0.0533346 -0.0533346 0 -1.56042 0 -0.0533346 0 0 -0.0533346 0 -3.23738 0 -0.0533346 0.0533346 0zm1.50708 0.106669l-1.45375 0 0 3.13071 1.45375 0 0 -3.13071z"></path><path class="fil0" d="M2.50283 1.74131l1.82101 0c0.00925984,0 0.0175866,-0.00369685 0.0235276,-0.0096378l0 -0.000208661c0.00607087,-0.00607087 0.00984646,-0.0144094 0.00984646,-0.0235315l0 -0.303941 -1.88776 0 0 0.303941c0,0.00912205 0.00377559,0.0174606 0.00984646,0.0235315l0 0.000208661c0.00594094,0.00594094 0.0142677,0.0096378 0.0235276,0.0096378zm1.82101 0.106669l-1.82101 0c-0.038378,0 -0.0733701,-0.0157835 -0.0988386,-0.0412047l-0.000106299 0.000106299c-0.0253543,-0.0253543 -0.0410984,-0.0603819 -0.0410984,-0.0989488l0 -0.357276 0 -0.0533346 0.0533346 0 1.99443 0 0.0533346 0 0 0.0533346 0 0.357276c0,0.0385669 -0.0157441,0.0735945 -0.0410984,0.0989488l-0.000106299 -0.000106299c-0.0254685,0.0254213 -0.0604606,0.0412047 -0.0988386,0.0412047z"></path><path class="fil0" d="M2.30095 1.29732l2.22475 0c0.00912205,0 0.0174646,-0.00377559 0.0235354,-0.00984646 0.00607087,-0.00607087 0.00984646,-0.0144094 0.00984646,-0.0235315l0 -0.303941 -2.29151 0 0 0.303941c0,0.00912205 0.00377559,0.0174606 0.00984646,0.0235315l0 0.000208661c0.00594094,0.00594094 0.0142677,0.0096378 0.0235276,0.0096378zm2.22475 0.106669l-2.22475 0c-0.038378,0 -0.0733701,-0.0157835 -0.0988386,-0.0412047l-0.000106299 0.000106299c-0.0253543,-0.0253543 -0.0410984,-0.0603819 -0.0410984,-0.0989488l0 -0.357276 0 -0.0533346 0.0533346 0 2.39818 0 0.0533346 0 0 0.0533346 0 0.357276c0,0.0385669 -0.0157441,0.0735945 -0.0410984,0.0989488 -0.0253543,0.0253543 -0.0603858,0.0410984 -0.0989528,0.0410984z"></path><g><path class="fil0" d="M3.08521 2.26898c0,-0.0294528 -0.0238819,-0.0533346 -0.0533346,-0.0533346 -0.0294528,0 -0.0533346,0.0238819 -0.0533346,0.0533346l0 2.2887c0,0.0294528 0.0238819,0.0533346 0.0533346,0.0533346 0.0294528,0 0.0533346,-0.0238819 0.0533346,-0.0533346l0 -2.2887z"></path><path class="fil0" d="M3.46667 2.26898c0,-0.0294528 -0.0238819,-0.0533346 -0.0533346,-0.0533346 -0.0294528,0 -0.0533346,0.0238819 -0.0533346,0.0533346l0 2.2887c0,0.0294528 0.0238819,0.0533346 0.0533346,0.0533346 0.0294528,0 0.0533346,-0.0238819 0.0533346,-0.0533346l0 -2.2887z"></path><path class="fil0" d="M3.84812 2.26898c0,-0.0294528 -0.0238819,-0.0533346 -0.0533346,-0.0533346 -0.0294528,0 -0.0533346,0.0238819 -0.0533346,0.0533346l0 2.2887c0,0.0294528 0.0238819,0.0533346 0.0533346,0.0533346 0.0294528,0 0.0533346,-0.0238819 0.0533346,-0.0533346l0 -2.2887z"></path></g></g></g><rect class="fil1" width="6.82666" height="6.82666"></rect></svg>