<svg xmlns="http://www.w3.org/2000/svg" xmlns:xlink="http://www.w3.org/1999/xlink" width="100" height="100" viewBox="0 0 100 100"><circle stroke="none" fill="#FFFFFF" r="48%" cx="50%" cy="50%"></circle><g transform="translate(50 50) scale(0.69 0.69) rotate(0) translate(-50 -50)" style="fill:#1A1A1A"><svg fill="#1A1A1A" xmlns="http://www.w3.org/2000/svg" xmlns:xlink="http://www.w3.org/1999/xlink" version="1.1" x="0px" y="0px" viewBox="0 0 64 64" enable-background="new 0 0 64 64" xml:space="preserve"><g><path fill="#1A1A1A" d="M60.541,36.394l-3.29,2.618L33.406,58.069l-2.33,1.854c-0.196,0.156-0.462,0.197-0.691,0.096   c-0.002-0.001-0.003-0.001-0.005-0.002c-1.996-0.892-3.986-1.797-5.979-2.697c-2.805-1.267-17.941-6.982-18.967-7.559   c-0.604-0.339-0.908-0.976-1.073-1.625c-0.391-1.548-0.177-3.265,0.089-4.817c0.002-0.013,0.004-0.026,0.007-0.039   c0.013-0.075,0.036-0.144,0.062-0.212c-0.256-0.13-0.487-0.287-0.704-0.458c0.346,0.167,0.708,0.275,1.045,0.472   c0.625,0.364,1.287,0.666,1.936,0.988c1.018,0.504,17.763,7.23,19.21,7.879c1.288,0.577,2.65,0.984,3.967,1.496   c0.96,0.373,1.82,0.245,2.59-0.421c0.831-0.719,1.656-1.442,2.481-2.169l27.06-21.615c0.542-0.432,0.631-1.22,0.201-1.762   c-0.432-0.542-1.22-0.631-1.762-0.201l-3.29,2.618L33.406,48.952l-2.33,1.854c-0.196,0.156-0.462,0.197-0.691,0.096   c-0.002-0.001-0.003-0.001-0.005-0.002c-1.996-0.892-3.986-1.797-5.979-2.697c-2.805-1.267-17.941-6.982-18.967-7.559   c-0.604-0.339-0.908-0.976-1.073-1.625c-0.391-1.548-0.177-3.265,0.089-4.817c0.002-0.013,0.004-0.026,0.007-0.039   c0.003-0.015,0.009-0.027,0.012-0.042c0.052,0.026,0.106,0.048,0.158,0.078c0.625,0.364,1.287,0.666,1.936,0.988   c1.018,0.504,17.763,7.23,19.21,7.879c1.288,0.577,2.65,0.984,3.967,1.496c0.96,0.373,1.82,0.245,2.59-0.421   c0.831-0.719,1.656-1.442,2.481-2.169l27.06-21.615c0.542-0.432,0.631-1.22,0.201-1.762c-0.432-0.542-1.22-0.631-1.762-0.201   l-3.29,2.618L33.172,40.07l-2.33,1.854c-0.196,0.156-0.462,0.197-0.691,0.096c-0.002-0.001-0.003-0.002-0.005-0.002   c-1.996-0.892-3.986-1.797-5.979-2.697C21.363,38.053,6.226,32.338,5.2,31.761c-0.604-0.339-0.908-0.976-1.073-1.625   c-0.391-1.548-0.177-3.265,0.089-4.817c0.002-0.013,0.004-0.026,0.007-0.039c0.119-0.691,0.843-1.098,1.495-0.839   c0,0,20.526,8.066,20.757,8.15c0.42,0.152,2.34,0.827,2.531,0.902c0.071,0.028,0.141,0.052,0.208,0.071   c0.245,0.073,0.474,0.093,0.697,0.059c0.273-0.043,0.537-0.166,0.81-0.372c0.171-0.13,0.343-0.26,0.515-0.388   c2.452-1.853,4.908-3.701,7.365-5.546c0.747-0.563,1.495-1.124,2.243-1.686c0.061-0.047,0.122-0.093,0.184-0.138   c2.136-1.604,4.272-3.206,6.411-4.807c0.125-0.095,0.246-0.19,0.355-0.29c3.259-2.451,6.521-4.898,9.785-7.342   c1.147-0.859,1.12-2.156-0.322-2.718c-1.143-0.446-2.283-0.894-3.425-1.345c-0.003,0-0.005-0.001-0.009-0.003   c-1.679-0.661-3.356-1.324-5.036-1.986c-2.741-1.082-5.484-2.162-8.225-3.245c-2.053-0.74-4.112-1.466-6.18-2.165   c-1.822-0.616-3.635-0.491-5.239,0.75c-0.057,0.045-0.119,0.082-0.179,0.123c-2.593,1.762-5.191,3.517-7.786,5.276   c-2.92,1.979-5.835,3.964-8.736,5.97c-0.492,0.34-0.981,0.684-1.468,1.03c-2.433,1.732-4.818,3.532-7.231,5.292   c-0.037,0.027-0.074,0.055-0.111,0.082c-0.776,0.566-1.256,1.316-1.551,2.235c-0.049,0.154-0.096,0.309-0.138,0.463   c-0.181,0.646-0.311,1.294-0.395,1.948c-0.162,1.251-0.16,2.514-0.037,3.781c0.058,0.595,0.156,1.186,0.272,1.774   c0.101,0.512,0.197,1.093,0.338,1.615c-0.148,0.568-0.264,1.139-0.338,1.713c-0.162,1.251-0.16,2.514-0.037,3.781   c0.058,0.595,0.156,1.186,0.272,1.774c0.08,0.407,0.161,0.856,0.257,1.29c-0.034,0.108-0.067,0.216-0.097,0.324   c-0.181,0.646-0.311,1.294-0.395,1.948c-0.162,1.251-0.16,2.514-0.037,3.781c0.058,0.595,0.156,1.186,0.272,1.774   c0.12,0.608,0.217,1.336,0.412,1.917c0.166,0.496,0.533,0.908,0.939,1.226c0.465,0.364,1.004,0.456,1.491,0.739   c0.625,0.364,1.287,0.666,1.936,0.988c1.018,0.504,17.763,7.23,19.21,7.879c1.288,0.577,2.65,0.984,3.967,1.496   c0.96,0.373,1.82,0.245,2.59-0.421c0.831-0.719,1.656-1.442,2.481-2.169l27.06-21.615c0.542-0.432,0.631-1.22,0.201-1.762   C61.872,36.052,61.083,35.963,60.541,36.394z"></path></g></svg></g></svg>