<svg height='100px' width='100px'  fill="#ffffff" xmlns="http://www.w3.org/2000/svg" xmlns:xlink="http://www.w3.org/1999/xlink" version="1.1" x="0px" y="0px" viewBox="0 0 100 100" style="enable-background:new 0 0 100 100;" xml:space="preserve"><g><path d="M17.4,43.7c0,14.9,12.1,27,27,27c5.8,0,11.1-1.8,15.5-4.9l16.4,16.4c0.7,0.7,1.7,1.1,2.6,1.1s1.9-0.4,2.6-1.1   c1.4-1.4,1.4-3.8,0-5.2L65.3,60.8c3.8-4.7,6.1-10.6,6.1-17.1c0-14.9-12.1-27-27-27C29.5,16.7,17.4,28.8,17.4,43.7z M23.3,43.7   c0-11.6,9.5-21.1,21.1-21.1S65.5,32,65.5,43.7s-9.5,21.1-21.1,21.1S23.3,55.3,23.3,43.7z"></path></g></svg>